<svg width="24" height="27" viewBox="0 0 24 27" fill="none" xmlns="http://www.w3.org/2000/svg">
<path d="M5.14286 1.6875V3.375H2.57143C1.15179 3.375 0 4.50879 0 5.90625V8.4375H24V5.90625C24 4.50879 22.8482 3.375 21.4286 3.375H18.8571V1.6875C18.8571 0.754102 18.0911 0 17.1429 0C16.1946 0 15.4286 0.754102 15.4286 1.6875V3.375H8.57143V1.6875C8.57143 0.754102 7.80536 0 6.85714 0C5.90893 0 5.14286 0.754102 5.14286 1.6875ZM24 10.125H0V24.4688C0 25.8662 1.15179 27 2.57143 27H21.4286C22.8482 27 24 25.8662 24 24.4688V10.125Z" fill="#B86735"/>
</svg>
