<svg width="22" height="29" viewBox="0 0 22 29" fill="none" xmlns="http://www.w3.org/2000/svg">
<path d="M12.3578 28.275C15.2969 24.6387 22 15.8254 22 10.875C22 4.87109 17.0729 0 11 0C4.92708 0 0 4.87109 0 10.875C0 15.8254 6.70313 24.6387 9.64219 28.275C10.3469 29.1416 11.6531 29.1416 12.3578 28.275ZM11 7.25C11.9725 7.25 12.9051 7.63192 13.5927 8.31174C14.2804 8.99156 14.6667 9.91359 14.6667 10.875C14.6667 11.8364 14.2804 12.7584 13.5927 13.4383C12.9051 14.1181 11.9725 14.5 11 14.5C10.0275 14.5 9.09491 14.1181 8.40728 13.4383C7.71964 12.7584 7.33333 11.8364 7.33333 10.875C7.33333 9.91359 7.71964 8.99156 8.40728 8.31174C9.09491 7.63192 10.0275 7.25 11 7.25Z" fill="#B86735"/>
</svg>
